<?xml version="1.0" encoding="UTF-8" standalone="no"?>
<svg width="77px" height="80px" viewBox="0 0 77 80" version="1.1" xmlns="http://www.w3.org/2000/svg" xmlns:xlink="http://www.w3.org/1999/xlink" xmlns:sketch="http://www.bohemiancoding.com/sketch/ns">
    <!-- Generator: sketchtool 3.5.1 (25234) - http://www.bohemiancoding.com/sketch -->
    <title>logo-quehayenloja copy</title>
    <desc>Created with sketchtool.</desc>
    <defs></defs>
    <g id="CoverPage" stroke="none" stroke-width="1" fill="none" fill-rule="evenodd" sketch:type="MSPage">
        <g id="iPhone-6" sketch:type="MSArtboardGroup" transform="translate(-149.000000, -52.000000)" fill="#26A9E0">
            <g id="logo-quehayenloja-copy" sketch:type="MSLayerGroup" transform="translate(149.000000, 52.000000)">
                <g id="Layer_1" sketch:type="MSShapeGroup">
                    <g id="Group">
                        <path d="M52.7324064,15.0109091 L52.7324064,7.99058824 L48.5736898,7.99058824 L48.5736898,16.1069519 C48.5736898,17.6714439 48.4851337,18.6921925 48.3144385,19.1657754 C48.0787166,19.8079144 47.7214973,20.2913369 47.2380749,20.6220321 C46.755508,20.9518717 46.1664171,21.1161497 45.475508,21.1161497 C44.7828877,21.1161497 44.2010695,20.948877 43.7270588,20.6134759 C43.255615,20.2785027 42.9120856,19.8074866 42.6981818,19.2047059 C42.4817112,18.6019251 42.3751872,17.5217112 42.3751872,15.9691979 L42.3751872,7.99058824 L38.1719786,7.99058824 L38.1719786,14.8898396 C38.1719786,17.5379679 38.3345455,19.3651337 38.6605348,20.3721925 C39.12,21.8245989 39.906738,22.9544385 41.0297326,23.7668449 C42.1497326,24.5779679 43.6205348,24.9852406 45.4365775,24.9852406 C47.1135829,24.9852406 48.4941176,24.6357219 49.5794652,23.9431016 C50.6648128,23.2462032 51.4879144,22.2481283 52.0462032,20.9497326 C52.5009626,19.8840642 52.7324064,17.9045989 52.7324064,15.0109091 L52.7324064,15.0109091 Z" id="Shape"></path>
                        <path d="M62.4551872,24.9848128 C64.1296257,24.9848128 65.5743316,24.6874866 66.7961497,24.0945455 C68.0128342,23.5003209 69.0588235,22.584385 69.9306952,21.3450267 L66.4282353,19.7013904 C65.3108021,20.788877 63.9747594,21.3304813 62.4239572,21.3304813 C61.1247059,21.3304813 60.0560428,20.9831016 59.2192513,20.2857754 C58.3803209,19.5927273 57.8648128,18.6545455 57.671016,17.4772193 L71.0263102,17.4772193 L71.0412834,16.6857754 C71.0412834,13.9452406 70.2254545,11.7394652 68.5929412,10.0693048 C66.9557219,8.39957219 64.8342246,7.56406417 62.2284492,7.56406417 C59.7685561,7.56406417 57.7249198,8.39957219 56.0954011,10.0693048 C54.4675936,11.7394652 53.6513369,13.8370053 53.6513369,16.3649198 C53.6513369,18.8329412 54.4675936,20.8847059 56.1035294,22.5257754 C57.7394652,24.1659893 59.8558289,24.9848128 62.4551872,24.9848128 L62.4551872,24.9848128 Z M59.3809626,12.0568984 C60.2554011,11.4074866 61.2740107,11.0827807 62.4303743,11.0827807 C63.499893,11.0827807 64.4380749,11.371123 65.2462032,11.9503743 C66.0547594,12.5279144 66.595508,13.2804278 66.8705882,14.2032086 L57.8566845,14.2032086 C58.322139,13.1794652 58.8316578,12.4645989 59.3809626,12.0568984 L59.3809626,12.0568984 Z" id="Shape"></path>
                        <path d="M14.4521925,47.7005348 L14.4521925,27.608984 L10.5856684,27.608984 L10.5856684,35.188877 L3.87935829,35.188877 L3.87935829,27.608984 L0,27.608984 L0,47.7005348 L3.87935829,47.7005348 L3.87935829,38.8885561 L10.5856684,38.8885561 L10.5856684,47.7005348 L14.4521925,47.7005348 Z" id="Shape"></path>
                        <path d="M30.6566845,47.7005348 L30.6566845,32.8393583 L26.9262032,32.8393583 L26.9262032,34.4795722 C26.2631016,33.8062032 25.5405348,33.2983957 24.7602139,32.9638503 C23.9747594,32.6258824 23.1379679,32.457754 22.2477005,32.457754 C20.3118717,32.457754 18.6639572,33.1897326 17.3082353,34.6575401 C15.9537968,36.1223529 15.2765775,38.0047059 15.2765775,40.2960428 C15.2765775,42.5103743 15.9760428,44.3597861 17.3783957,45.8498396 C18.7790374,47.3386096 20.4372193,48.0825668 22.3585027,48.0825668 C23.2124064,48.0825668 24.0072727,47.9306952 24.7379679,47.6248128 C25.4725134,47.3193583 26.2002139,46.8218182 26.926631,46.1291979 L26.926631,47.7009626 L30.6566845,47.7009626 L30.6566845,47.7005348 Z M25.9319786,43.4442781 C25.1636364,44.2613904 24.1895187,44.6690909 23.0211765,44.6690909 C21.8870588,44.6690909 20.9321925,44.2541176 20.1540107,43.4245989 C19.380107,42.595508 18.9903743,41.5405348 18.9903743,40.2558289 C18.9903743,38.9813904 19.3741176,37.9366845 20.1330481,37.1225668 C20.8971123,36.3075936 21.8545455,35.9016043 23.0074866,35.9016043 C24.1882353,35.9016043 25.1636364,36.2994652 25.9319786,37.1016043 C26.7028877,37.9020321 27.0913369,38.9514439 27.0913369,40.2434225 C27.0913369,41.5623529 26.7028877,42.6305882 25.9319786,43.4442781 L25.9319786,43.4442781 Z" id="Shape"></path>
                        <path d="M37.7638503,53.1358289 L47.0690909,32.8393583 L43.2487701,32.8393583 L38.9908021,42.1634225 L35.1294118,32.8393583 L31.3189305,32.8393583 L36.9664171,46.5912299 L33.9114439,53.1358289 L37.7638503,53.1358289 Z" id="Shape"></path>
                        <path d="M62.3657754,31.724492 L62.3657754,28.0675936 L51.6487701,28.0675936 L51.6487701,47.7005348 L62.3657754,47.7005348 L62.3657754,44.0282353 L55.3582888,44.0282353 L55.3582888,38.8650267 L62.3657754,38.8650267 L62.3657754,35.2752941 L55.3582888,35.2752941 L55.3582888,31.724492 L62.3657754,31.724492 Z" id="Shape"></path>
                        <path d="M75.1662032,34.3122995 C74.1608556,33.3082353 72.9416043,32.8059893 71.5003209,32.8059893 C70.7987166,32.8059893 70.1137968,32.9407487 69.4434225,33.2115508 C68.7717647,33.4853476 68.0231016,33.9700535 67.1957219,34.6673797 L67.1957219,33.1786096 L63.5525134,33.1786096 L63.5525134,47.7005348 L67.1957219,47.7005348 L67.1957219,41.8725134 C67.1957219,40.3623529 67.2504813,39.3805348 67.3565775,38.9262032 C67.5589305,38.0573262 67.9264171,37.3745455 68.4560428,36.8825668 C68.9826738,36.3893048 69.6141176,36.1407487 70.3516578,36.1407487 C70.9210695,36.1407487 71.3946524,36.2900535 71.7835294,36.5895187 C72.1672727,36.8868449 72.4393583,37.3189305 72.5959358,37.886631 C72.7503743,38.4581818 72.8278075,39.6081283 72.8278075,41.3407487 L72.8278075,47.7005348 L76.4337968,47.7005348 L76.4337968,38.1048128 C76.4337968,36.4303743 76.0102674,35.1662032 75.1662032,34.3122995 L75.1662032,34.3122995 Z" id="Shape"></path>
                        <path d="M18.5013904,49.3565775 L14.013262,49.3565775 L14.013262,72.9343316 L25.0404278,72.9343316 L25.0404278,68.6571123 L18.5013904,68.6571123 L18.5013904,49.3565775 Z" id="Shape"></path>
                        <path d="M43.533262,64.1993583 C43.533262,62.5634225 43.1272727,61.0425668 42.3135829,59.6316578 C41.5020321,58.2211765 40.3730481,57.1054545 38.924492,56.2823529 C37.4763636,55.4592513 35.9298396,55.0472727 34.2823529,55.0472727 C32.0085561,55.0472727 29.9940107,55.8387166 28.2395722,57.4194652 C26.242139,59.2367914 25.2432086,61.5063102 25.2432086,64.2314439 C25.2432086,66.7768984 26.1291979,68.9351872 27.8973262,70.7165775 C29.6641711,72.4941176 31.8006417,73.3848128 34.3003209,73.3848128 C35.9987166,73.3848128 37.553369,72.9818182 38.9651337,72.1741176 C40.3743316,71.3664171 41.4900535,70.2464171 42.3063102,68.8149733 C43.1255615,67.3835294 43.533262,65.8459893 43.533262,64.1993583 L43.533262,64.1993583 Z M37.7612834,67.8879144 C36.8526203,68.8367914 35.7129412,69.313369 34.3405348,69.313369 C32.968984,69.313369 31.8404278,68.8436364 30.9458824,67.8994652 C30.0517647,66.962139 29.6042781,65.7334759 29.6042781,64.2168984 C29.6042781,62.742246 30.055615,61.5306952 30.96,60.5852406 C31.8656684,59.6406417 32.9985027,59.166631 34.3572193,59.166631 C35.748877,59.166631 36.8898396,59.6350802 37.7848128,60.5702674 C38.6780749,61.5063102 39.1251337,62.7208556 39.1251337,64.2168984 C39.1251337,65.7137968 38.6699465,66.9351872 37.7612834,67.8879144 L37.7612834,67.8879144 Z" id="Shape"></path>
                        <path d="M47.2770053,48.3161497 C46.5099465,48.3161497 45.8541176,48.5860963 45.3172193,49.1319786 C44.7739037,49.6740107 44.5056684,50.328984 44.5056684,51.0960428 C44.5056684,51.8951872 44.7816043,52.5766845 45.3330481,53.1413904 C45.8819251,53.7056684 46.5497326,53.9897326 47.3262032,53.9897326 C48.0859893,53.9897326 48.7379679,53.713369 49.2804278,53.1572193 C49.8271658,52.604492 50.0988235,51.9388235 50.0988235,51.1602139 C50.0988235,50.3717647 49.8245989,49.6996791 49.2765775,49.1486631 C48.7225668,48.5937968 48.0594652,48.3161497 47.2770053,48.3161497 L47.2770053,48.3161497 Z" id="Shape"></path>
                        <path d="M45.097754,73.8318717 C45.097754,74.72 44.9608556,75.3291979 44.6819251,75.6590374 C44.4051337,75.9918717 43.988877,76.1570053 43.4322995,76.1570053 C42.9090909,76.1570053 42.3063102,75.9918717 41.6209626,75.6590374 L41.6209626,79.1071658 C42.9236364,79.5439572 44.0158289,79.7625668 44.8906952,79.7625668 C45.884492,79.7625668 46.7349733,79.5439572 47.437861,79.1071658 C48.1458824,78.6690909 48.6592513,78.0393583 48.9848128,77.2235294 C49.3129412,76.4068449 49.4725134,75.1683422 49.4725134,73.5131551 L49.4725134,55.497754 L45.097754,55.497754 L45.097754,73.8318717 L45.097754,73.8318717 Z" id="Shape"></path>
                        <path d="M64.4804278,57.419893 C63.7005348,56.6301604 62.8534759,56.0376471 61.9328342,55.6402139 C61.0168984,55.2453476 60.035508,55.0477005 58.9895187,55.0477005 C56.7165775,55.0477005 54.7850267,55.9080214 53.1940107,57.6265241 C51.6034225,59.3501604 50.808984,61.5559358 50.808984,64.248984 C50.808984,66.8436364 51.6286631,69.0139037 53.2735829,70.7640642 C54.9167914,72.5103743 56.8671658,73.3848128 59.1174332,73.3848128 C60.1210695,73.3848128 61.053262,73.2047059 61.9118717,72.8470588 C62.7683422,72.4898396 63.6265241,71.9045989 64.4804278,71.0909091 L64.4804278,72.9343316 L68.8560428,72.9343316 L68.8560428,55.4968984 L64.4804278,55.4968984 L64.4804278,57.419893 L64.4804278,57.419893 Z M63.3146524,67.9431016 C62.408984,68.8979679 61.2693048,69.3758289 59.8951872,69.3758289 C58.5664171,69.3758289 57.4459893,68.8906952 56.5317647,67.917861 C55.6231016,66.9475936 55.1691979,65.7073797 55.1691979,64.1997861 C55.1691979,62.7037433 55.6162567,61.4793583 56.5078075,60.5223529 C57.4040642,59.5649198 58.5257754,59.0853476 59.8810695,59.0853476 C61.2650267,59.0853476 62.408984,59.5576471 63.3146524,60.4962567 C64.2207487,61.4382888 64.6737968,62.6690909 64.6737968,64.1835294 C64.6737968,65.7334759 64.2207487,66.9860963 63.3146524,67.9431016 L63.3146524,67.9431016 Z" id="Shape"></path>
                        <path d="M23.6859893,26.6720856 C26.5758289,26.6720856 29.0280214,26.0124064 30.9659893,24.7704813 L34.0765775,27.8438503 L37.4780749,24.4406417 L34.4423529,21.4408556 C36.0851337,19.0639572 36.8564706,16.0260963 36.8188235,13.0986096 C36.7122995,6.51294118 32.684492,0 23.6859893,0 C14.6836364,0 10.4761497,6.69518717 10.515508,13.3920856 C10.548877,20.0491979 14.5741176,26.6720856 23.6859893,26.6720856 L23.6859893,26.6720856 Z M23.6859893,4.35336898 C29.7232086,4.35336898 31.8810695,8.81625668 32.0645989,12.9527273 C32.2485561,17.3437433 29.4652406,22.2074866 23.6859893,22.2074866 C18.1227807,22.2074866 15.346738,17.7082353 15.271016,13.5011765 C15.197861,9.18331551 17.6504813,4.35336898 23.6859893,4.35336898 L23.6859893,4.35336898 Z" id="Shape"></path>
                    </g>
                </g>
            </g>
        </g>
    </g>
</svg>